<svg width="17" height="22" viewBox="0 0 17 22" fill="none" xmlns="http://www.w3.org/2000/svg">
<path d="M1.33514e-05 9.33699V9.81284C0.172989 10.7792 0.272314 11.7646 0.396837 12.7793C0.498102 13.6064 1.14833 14.2059 1.98268 14.2H4.02302C4.61656 15.2113 5.49693 15.9798 6.57936 16.4278C6.90884 18.1329 6.50474 19.833 5.49548 21.202C5.27357 21.5029 5.49064 21.84 5.75858 21.9993H11.2487C11.5176 21.8386 11.7337 21.5024 11.5108 21.2C10.4953 19.8252 10.0951 18.0997 10.4333 16.4205C11.5331 15.9706 12.3956 15.1967 12.9862 14.1996H15.027C15.8328 14.2054 16.4966 13.6279 16.6013 12.8228L16.9913 9.75324C17.0296 9.45033 16.9535 9.0165 16.562 9.01406L14.0522 8.99696L14.1636 8.05943C14.2048 7.71109 13.9795 7.43994 13.6176 7.43994H3.38974C3.0278 7.43994 2.80153 7.71109 2.84368 8.05943L2.95609 8.99598L0.398775 9.00966C0.235006 9.01064 0.0974026 9.24514 0.000497818 9.33699H1.33514e-05ZM4.37284 12.0431L3.93725 8.48105H13.0691L12.6659 11.8496C12.4062 14.0207 10.7608 15.697 8.61921 15.7566C6.48488 15.8157 4.64127 14.2401 4.37284 12.0431ZM13.4649 13.156L13.651 12.2307L13.9175 10.0415L15.9069 10.0429L15.5886 12.621C15.5726 12.944 15.3362 13.1672 15.0149 13.1633L13.4649 13.156ZM1.85622 13.1492C1.60912 13.1472 1.46667 12.8853 1.42839 12.7021L1.10037 10.0425L3.08982 10.0415L3.33984 12.1027L3.54188 13.1624L1.85622 13.1492ZM6.87783 20.9567C7.58814 19.6088 7.84009 18.2101 7.67487 16.7337C8.2374 16.8172 8.76989 16.8167 9.33485 16.7337C9.16139 18.2233 9.4366 19.6479 10.1324 20.9611L6.87783 20.9567Z" fill="#FF8400"/>
<path d="M8.49705 5.20237L9.44187 5.7388C9.7791 5.93031 10.1662 5.92836 10.4846 5.69581C10.7481 5.50332 10.9439 5.12713 10.8533 4.7529L10.5674 3.56865L11.1048 3.02587C11.3674 2.76059 11.4425 2.37219 11.2976 2.00528C11.1828 1.7146 10.8693 1.4327 10.487 1.42733L9.70545 1.41609L9.37356 0.594833C9.22771 0.234281 8.88612 0.0090587 8.52612 0.00026476C8.13705 -0.00901773 7.78286 0.226465 7.63218 0.59923L7.30125 1.41756L6.56962 1.42146C6.18054 1.42342 5.85785 1.66769 5.72364 1.97255C5.56278 2.33701 5.62819 2.74984 5.90194 3.02587L6.44122 3.56914L6.16068 4.71186C6.06862 5.08756 6.22512 5.46423 6.49839 5.67724C6.79492 5.90833 7.2024 5.94643 7.53333 5.7559L8.49705 5.20188V5.20237ZM8.23347 4.15833L7.23051 4.72554L7.50765 3.55351C7.55271 3.36395 7.50959 3.15436 7.36666 3.02196L6.81624 2.47039L7.63896 2.45768C7.86523 2.45426 8.04596 2.33359 8.13027 2.12986L8.50335 1.22604L8.87595 2.12791C8.97237 2.36095 9.16812 2.45719 9.42007 2.46061L10.1895 2.47136L9.63859 3.02245C9.51746 3.14117 9.45205 3.34147 9.49178 3.51149L9.77765 4.7275L8.75579 4.15101C8.60413 4.06551 8.40063 4.06404 8.23299 4.15882L8.23347 4.15833Z" fill="#FF8400"/>
<path d="M11.9058 6.28155C11.8403 6.60546 12.0467 6.85315 12.3065 6.90738C12.5836 6.96503 12.8554 6.78476 12.9179 6.48088C13.102 5.58096 13.5594 4.79928 14.2261 4.18322C14.4485 3.97754 14.4369 3.64483 14.2547 3.44941C14.0599 3.24031 13.7445 3.22175 13.5187 3.42889C12.6994 4.18126 12.1335 5.15348 11.9062 6.28155H11.9058Z" fill="#FF8400"/>
<path d="M2.78168 4.18329C4.42955 5.7149 3.76866 7.01884 4.66163 6.91332C4.93636 6.88058 5.16602 6.61774 5.10546 6.30409C4.88887 5.18335 4.32053 4.19013 3.4886 3.42798C3.26281 3.22133 2.94884 3.2394 2.75309 3.44948C2.5714 3.64441 2.56074 3.97761 2.78168 4.18329Z" fill="#FF8400"/>
</svg>
