<svg width="124" height="78" viewBox="0 0 124 78" fill="none" xmlns="http://www.w3.org/2000/svg">
<g clip-path="url(#clip0_9_440)">
<path d="M123.998 1.26754V76.7446C123.228 77.7779 122.452 78.0024 121.025 78.0024L1.9898 77.9976C0.747402 77.9976 0.00244642 76.9546 0.00244642 75.7909V2.22362C1.98539e-05 0.864346 0.878437 0.012085 2.23246 0.012085H122.248C123.046 0.0144993 123.551 0.944019 123.998 1.26754ZM49.7252 4.1575L4.12518 4.09232L4.16401 49.4867C11.9703 28.0281 28.4394 11.7989 49.7252 4.1575ZM72.3263 73.9101L72.3433 4.18889C34.5519 5.14255 4.05724 36.3141 4.17614 73.9246L72.3238 73.9101H72.3263ZM119.771 47.21C118.725 23.9744 99.9042 5.22947 76.4684 4.18406L76.4636 47.2148L119.768 47.21H119.771ZM119.863 4.07783L94.3207 4.13577C105.81 9.32418 114.633 18.0858 119.836 29.5298L119.863 4.07783ZM119.715 51.3216L95.0656 51.3288L95.0753 73.915C108.026 73.8401 118.715 63.992 119.712 51.3216H119.715ZM82.6707 57.4926L82.6343 51.6596C79.6157 52.4998 77.4827 54.663 76.8397 57.483L82.6707 57.495V57.4926ZM90.9599 57.4057C90.659 54.453 89.2273 52.6253 86.8153 51.7851L86.8226 57.5216L90.9599 57.4057ZM90.8992 61.5849L76.6286 61.6405C77.8783 68.9535 83.9374 73.8449 90.9405 73.8932L90.8992 61.5825V61.5849ZM119.889 73.9125L119.824 64.1465C117.155 68.2195 114.107 71.2181 110.03 73.8812L119.887 73.9125H119.889ZM79.2226 73.9005L76.5242 71.3582L76.4733 73.9101L79.2226 73.9005Z" fill="#A8A8A8"/>
<path d="M0 72.9323V1.20474C0.453768 0.917438 0.990039 0.00723267 1.73742 0.00723267L72.4549 0.0217187C70.5791 0.258324 68.9339 0.284881 67.0727 0.40077C61.1398 0.840179 55.5732 2.23325 49.9072 4.07539L4.13002 4.08263V49.5905C2.21546 55.3028 0.89783 60.9306 0.378544 66.8989L0.223244 71.9979C0.213538 72.3311 0.121328 72.7971 0 72.9299L0 72.9323Z" fill="black"/>
<path d="M0 76.7832V75.8199C1.29579 75.9623 2.69592 75.9671 4.08877 75.9406L4.2198 73.9077H72.3214L72.4524 61.3531L72.7121 62.9756C73.1974 65.9887 74.5563 68.6686 76.4174 71.0709L76.5048 73.8787L79.3706 73.9656C81.8991 75.972 84.7745 77.2733 87.9558 77.7344C88.6207 77.7441 89.2127 77.7634 89.8897 77.9807L2.96769 77.9928C1.56271 77.9928 0.815326 77.7513 0.00242657 76.7832H0Z" fill="black"/>
<path d="M90.9307 61.4521C92.4134 61.8771 94.8181 61.5101 94.8836 60.117C94.9637 58.4004 95.0535 56.6379 94.6531 54.9286C93.7722 51.1574 90.5667 48.0984 86.6648 47.4852C85.3836 47.2848 83.8961 47.3862 82.6222 47.4707C80.2829 47.6276 78.3684 48.9193 76.6115 50.3534C74.2214 52.3066 73.0008 54.8876 72.3651 58.0479L72.3359 4.18889C73.7967 4.073 75.0658 4.09473 76.4635 4.23717V47.1955L119.739 47.2075L119.831 51.3095H95.0899L95.1238 60.1846L95.0413 73.8932L90.9162 73.898L90.9307 61.4497V61.4521Z" fill="black"/>
<path d="M121.879 35.0272L119.882 29.5756L119.863 4.09472L94.2357 4.06574L88.6716 2.0546C84.6435 0.796731 80.7634 0.38388 76.5048 0.0362151L121.792 0C122.915 0 123.988 0.731544 123.988 1.96527L123.956 48.4026C123.663 43.7792 123.34 39.5324 121.882 35.0296L121.879 35.0272Z" fill="black"/>
<path d="M98.7637 77.7151C102.77 77.3022 106.468 75.9067 109.938 73.9101L119.841 73.9053L119.887 64.0161C121.913 60.4767 123.355 56.7369 123.721 52.6663C123.808 51.703 123.689 50.7759 123.973 49.7933L123.998 75.8126C123.998 76.899 123.214 77.9903 122.047 77.9879L96.1212 77.9686C96.9074 77.6765 97.8416 77.8092 98.7588 77.7151H98.7637Z" fill="black"/>
<path d="M84.726 61.5825L76.5558 61.6043C76.4611 60.1846 76.483 58.8736 76.7208 57.5095L82.6586 57.4516L82.6683 51.6524C83.9495 51.2347 85.4346 51.2733 86.825 51.6693L86.8056 57.4057L84.7357 57.5313L84.726 61.5801V61.5825Z" fill="black"/>
</g>
<defs>
<clipPath id="clip0_9_440">
<rect width="124" height="78" fill="white"/>
</clipPath>
</defs>
</svg>
