<svg width="93" height="104" viewBox="0 0 93 104" fill="none" xmlns="http://www.w3.org/2000/svg">
<path d="M44.8798 1.08937e-05C42.3059 0.708144 39.9462 1.82936 37.9506 3.793C33.3789 8.14965 30.6028 14.4394 28.5788 20.4301C22.2986 19.1705 16.2671 18.3911 10.088 19.8379C3.72893 21.2521 -0.71534 26.2762 0.0954666 33.1195C0.95076 40.1052 5.69832 46.7633 10.3104 51.9949C5.69023 57.2428 0.964912 63.8561 0.097496 70.8622C-0.719376 77.681 3.73701 82.7499 10.0779 84.1254C16.0608 85.5661 22.4664 84.8275 28.5889 83.5496C30.7868 90.1446 34.2099 97.7285 39.9361 101.804C45.1406 105.284 50.1369 104.462 54.7308 100.484C59.5067 96.0538 62.3253 89.7193 64.4059 83.5516C70.6133 84.8376 76.9966 85.5743 83.0726 84.0888C89.4357 82.6196 93.7748 77.4999 92.871 70.6628C91.949 63.7361 87.2681 57.194 82.6783 51.9868C87.2985 46.7551 92.0359 40.1093 92.8953 33.1175C93.6818 26.4126 89.4397 21.4353 83.2303 19.9173C77.0027 18.383 70.7487 19.1176 64.4099 20.4362C62.3495 14.3133 59.5936 8.1293 54.937 3.68719C52.9454 1.78662 50.6343 0.69797 48.1069 -0.00405884H44.8778L44.8798 1.08937e-05ZM46.4509 26.5265C41.6123 24.3309 36.982 22.6928 31.9797 21.2806C33.1585 17.5568 34.6689 14.0182 36.703 10.6851C38.1568 8.45284 39.744 6.45257 41.9075 4.97526C51.7302 -1.3369 58.7221 13.7903 61.0191 21.2705C56.0168 22.6745 51.3016 24.4001 46.4509 26.5265ZM87.0336 40.1011C85.1228 43.5543 82.8583 46.5557 80.2661 49.433C76.4527 45.6176 72.5584 42.3008 68.2415 39.1468C67.6592 33.9355 66.7776 28.9419 65.4067 23.7917C68.7591 23.0347 71.9923 22.6603 75.3426 22.5158C77.7285 22.5036 79.9547 22.7254 82.2598 23.2585C87.0376 24.4001 90.1798 27.9082 89.4883 33.0951C89.0899 35.5735 88.2367 37.7712 87.0316 40.0991L87.0336 40.1011ZM6.02789 40.2374C4.8127 37.9258 3.95538 35.7363 3.52067 33.2741C2.76647 28.073 5.75695 24.5324 10.5672 23.2931C12.9207 22.7213 15.1995 22.526 17.6461 22.5178C20.9944 22.6664 24.2174 23.0734 27.588 23.8039C26.2192 28.9399 25.3416 33.9395 24.7573 39.1549C20.3798 42.313 16.4834 45.7173 12.6983 49.431C10.0961 46.4926 7.90022 43.597 6.02789 40.2374ZM28.6475 36.3712C29.153 32.1407 29.9699 28.3925 30.9991 24.6199C34.9277 25.7227 38.541 26.9661 42.3038 28.5085C37.5886 30.8181 33.2576 33.4532 28.6455 36.3732L28.6475 36.3712ZM50.7617 28.5024C54.6014 26.8969 58.1944 25.6841 62.0402 24.6402C63.041 28.5899 63.8438 32.2119 64.3513 36.3814C59.8463 33.502 55.5234 30.9503 50.7617 28.5024ZM28.0248 62.855C27.4 55.3178 27.3575 48.2589 28.0773 41.0433C33.9329 36.8962 39.9867 33.3616 46.4954 30.3602C52.9919 33.3677 59.0436 36.8982 64.9093 41.0575C65.611 48.3728 65.6069 55.6109 64.9134 62.9242C59.0497 67.0834 53 70.6119 46.4832 73.6296C39.9705 70.5732 33.7975 67.0529 28.0288 62.857L28.0248 62.855ZM68.6601 60.0937C68.9553 54.4734 68.8825 49.3374 68.7045 43.9145C72.1621 46.5394 74.9888 49.1278 77.8883 51.9929C74.9443 54.8926 72.0185 57.5725 68.6601 60.0937ZM15.1024 51.9725C18.1455 48.9975 21.0066 46.3726 24.3286 43.8819C24.0557 49.4574 24.0597 54.5141 24.3266 60.0977C20.9782 57.5623 18.0302 54.917 15.1045 51.9705L15.1024 51.9725ZM82.3487 80.7109C80.0113 81.2502 77.86 81.4394 75.5448 81.4659C72.1297 81.3316 68.838 80.9185 65.4067 80.1758C66.7756 75.0377 67.6572 70.0421 68.2415 64.8247C72.6029 61.6544 76.5093 58.2664 80.2843 54.5466C82.9654 57.5643 85.2219 60.5637 87.072 63.9497C88.2306 66.1881 89.0899 68.4041 89.4923 70.8825C90.1595 75.986 87.1812 79.4717 82.3507 80.7109H82.3487ZM9.83322 80.5013C5.34043 78.9569 2.91206 75.6787 3.50044 70.8846C3.90079 68.4081 4.76012 66.1962 5.91467 63.9579C7.78699 60.5312 10.086 57.4565 12.7186 54.5405C16.5704 58.4108 20.5536 61.7419 24.7795 64.8756C25.3234 70.1805 26.2556 75.1028 27.5759 80.1697C24.0759 80.9449 20.7255 81.358 17.2437 81.4679C14.7142 81.4414 12.3708 81.1708 9.83524 80.5013H9.83322ZM50.6747 75.4712C55.4203 73.1473 59.7877 70.4857 64.3493 67.6125C63.8397 71.7718 63.039 75.3837 62.0321 79.3435C58.1277 78.2996 54.4861 77.0075 50.6727 75.4732L50.6747 75.4712ZM30.9425 79.315C29.9072 75.1863 29.1085 71.5479 28.6516 67.5983C33.203 70.5346 37.5017 73.0639 42.2958 75.4671C38.6178 76.9525 34.8954 78.3118 30.9404 79.315H30.9425ZM41.8489 98.9657C39.7056 97.4823 38.1932 95.5553 36.7778 93.4065C34.7114 90.0774 33.2131 86.5347 31.9676 82.7071C36.9618 81.3051 41.7053 79.5938 46.4873 77.4674C51.247 79.5755 55.9419 81.2868 61.007 82.699C59.816 86.4676 58.2814 90.051 56.2088 93.4126C52.9899 98.4102 47.9431 103.009 41.8509 98.9637L41.8489 98.9657Z" fill="black"/>
</svg>
