<svg width="25" height="25" viewBox="0 0 25 25" fill="none" xmlns="http://www.w3.org/2000/svg">
<path d="M13.466 0.088054C6.71264 -0.723858 0.869177 4.17814 0.0866776 10.6979C-0.707951 17.3356 4.05578 23.3812 10.6393 24.1687C17.1561 24.948 23.1431 20.2678 24.0004 13.7074C24.8577 7.14701 20.278 0.908106 13.466 0.088054ZM11.9859 8.6345C10.8657 8.5938 10.2713 7.62113 10.3582 6.74817C10.4512 5.81824 11.2196 5.15284 12.2609 5.19557C15.9247 5.34208 18.7938 8.22956 18.9394 11.9167C18.9839 13.0379 18.2257 13.8397 17.2046 13.8397C16.321 13.8397 15.5304 13.1356 15.5021 12.1162C15.4495 10.1627 14.0018 8.70979 11.9879 8.63653L11.9859 8.6345Z" fill="#A8A8A8"/>
</svg>
